# xmcd CD database file
#
# Track frame offsets:
#	150
#	26181
#	44454
#	64372
#	85279
#	104763
#	123702
#	134351
#	141509
#	164157
#	191117
#	209581
#	225654
#	243877
#	265247
#	282715
#	297272
#	316708
#	332214
#
# Disc length: 4733 seconds
#
# Revision: 0
# Processed by: cddbd v1.4PL0 Copyright (c) Steve Scherf et al.
# Submitted via: CDex 1.50beta9
#
DISCID=42127b13
DTITLE=Morcheeba - Big Calm
DYEAR=1900
DGENRE=Jazz
TTITLE0=The Sea
TTITLE1=Shoulder Holster
TTITLE2=Part of the Process
TTITLE3=Blindfold
TTITLE4=Let me See
TTITLE5=Bullet Proof
TTITLE6=Over and Over
TTITLE7=Diggin' a Watery Grave
TTITLE8=Fear and Love
TTITLE9=Big Calm
TTITLE10=World Looking in
TTITLE11=Rome wasn't built in a Day
TTITLE12=Love is Rare
TTITLE13=Let it go
TTITLE14=Shallow End
TTITLE15=Be Yourself
TTITLE16=Coming Down Gently
TTITLE17=Good Girl Down
TTITLE18=Freagments of Freedom
EXTD=
EXTT0=
EXTT1=
EXTT2=
EXTT3=
EXTT4=
EXTT5=
EXTT6=
EXTT7=
EXTT8=
EXTT9=
EXTT10=
EXTT11=
EXTT12=
EXTT13=
EXTT14=
EXTT15=
EXTT16=
EXTT17=
EXTT18=
PLAYORDER=
